# xmcd
#
# Track frame offsets: 
#        182
#        13600
#        34520
#        47855
#        65980
#        77220
#        91690
#        111092
#        126137
#        139217
#        151082
#        165025
#
# Disc length: 2439 seconds
#
# Revision: 2
# Processed by: cddbd v1.4PL0 Copyright (c) Steve Scherf et al.
# Submitted via: ExactAudioCopy v0.90b3
#
DISCID=8f09850c
DTITLE=Hank Williams, Jr. - Hank 22 - Disc 1
DYEAR=1900
DGENRE=Country
TTITLE0=All My Rowdy Friends Are Coming Over Tonight
TTITLE1=Man Of Steel
TTITLE2=Attitude Adjustment
TTITLE3=Family Tradition
TTITLE4=Texas Women
TTITLE5=Whiskey Bent And Hell Bound
TTITLE6=A Country Boy Can Survive
TTITLE7=Buck Naked
TTITLE8=Women I've Never Had
TTITLE9=Dixie On My Mind
TTITLE10=Old Habits
TTITLE11=Country State Of Mind
EXTD=
EXTT0=
EXTT1=
EXTT2=
EXTT3=
EXTT4=
EXTT5=
EXTT6=
EXTT7=
EXTT8=
EXTT9=
EXTT10=
EXTT11=
PLAYORDER=
